<?xml version="1.0" encoding="UTF-8" standalone="no"?>
<!DOCTYPE svg PUBLIC "-//W3C//DTD SVG 1.0//EN" "http://www.w3.org/TR/2001/PR-SVG-20010719/DTD/svg10.dtd">
<svg width="71cm" height="56cm" viewBox="109 101 1403 1114" xmlns="http://www.w3.org/2000/svg" xmlns:xlink="http://www.w3.org/1999/xlink">
  <g>
    <rect style="fill: #ffffff" x="110.692" y="751.325" width="1285.51" height="462.445"/>
    <rect style="fill: none; fill-opacity:0; stroke-width: 2; stroke: #000000" x="110.692" y="751.325" width="1285.51" height="462.445"/>
    <rect style="fill: #ffffff" x="110.692" y="731.325" width="119.5" height="20"/>
    <rect style="fill: none; fill-opacity:0; stroke-width: 2; stroke: #000000" x="110.692" y="731.325" width="119.5" height="20"/>
    <text font-size="12.7998" style="fill: #000000;text-anchor:start;font-family:monospace;font-style:normal;font-weight:normal" x="112.692" y="746.325">Main Controller</text>
  </g>
  <g>
    <rect style="fill: #ffffff" x="520.309" y="492.502" width="300.866" height="178.963"/>
    <rect style="fill: none; fill-opacity:0; stroke-width: 2; stroke: #000000" x="520.309" y="492.502" width="300.866" height="178.963"/>
    <rect style="fill: #ffffff" x="520.309" y="472.502" width="111.8" height="20"/>
    <rect style="fill: none; fill-opacity:0; stroke-width: 2; stroke: #000000" x="520.309" y="472.502" width="111.8" height="20"/>
    <text font-size="12.7998" style="fill: #000000;text-anchor:start;font-family:monospace;font-style:normal;font-weight:normal" x="522.309" y="487.502">Plugin WallRun</text>
  </g>
  <g>
    <rect style="fill: #ffffff" x="719.454" y="202.523" width="300.866" height="178.963"/>
    <rect style="fill: none; fill-opacity:0; stroke-width: 2; stroke: #000000" x="719.454" y="202.523" width="300.866" height="178.963"/>
    <rect style="fill: #ffffff" x="719.454" y="182.523" width="96.4" height="20"/>
    <rect style="fill: none; fill-opacity:0; stroke-width: 2; stroke: #000000" x="719.454" y="182.523" width="96.4" height="20"/>
    <text font-size="12.7998" style="fill: #000000;text-anchor:start;font-family:monospace;font-style:normal;font-weight:normal" x="721.454" y="197.523">Plugin Climb</text>
  </g>
  <g>
    <rect style="fill: #ffffff" x="488.402" y="1141.1" width="80" height="36" rx="10" ry="10"/>
    <rect style="fill: none; fill-opacity:0; stroke-width: 2; stroke: #000000" x="488.402" y="1141.1" width="80" height="36" rx="10" ry="10"/>
    <text font-size="12.7998" style="fill: #000000;text-anchor:middle;font-family:sans-serif;font-style:normal;font-weight:normal" x="528.402" y="1163">
      <tspan x="528.402" y="1163">Idle</tspan>
    </text>
  </g>
  <g>
    <rect style="fill: #ffffff" x="184.8" y="851.983" width="80" height="36" rx="10" ry="10"/>
    <rect style="fill: none; fill-opacity:0; stroke-width: 2; stroke: #000000" x="184.8" y="851.983" width="80" height="36" rx="10" ry="10"/>
    <text font-size="12.7998" style="fill: #000000;text-anchor:middle;font-family:sans-serif;font-style:normal;font-weight:normal" x="224.8" y="873.883">
      <tspan x="224.8" y="873.883">Walk</tspan>
    </text>
  </g>
  <g>
    <rect style="fill: #ffffff" x="495.8" y="836.983" width="80" height="36" rx="10" ry="10"/>
    <rect style="fill: none; fill-opacity:0; stroke-width: 2; stroke: #000000" x="495.8" y="836.983" width="80" height="36" rx="10" ry="10"/>
    <text font-size="12.7998" style="fill: #000000;text-anchor:middle;font-family:sans-serif;font-style:normal;font-weight:normal" x="535.8" y="858.883">
      <tspan x="535.8" y="858.883">Run</tspan>
    </text>
  </g>
  <g>
    <rect style="fill: #ffffff" x="989.337" y="974.342" width="80" height="36" rx="10" ry="10"/>
    <rect style="fill: none; fill-opacity:0; stroke-width: 2; stroke: #000000" x="989.337" y="974.342" width="80" height="36" rx="10" ry="10"/>
    <text font-size="12.7998" style="fill: #000000;text-anchor:middle;font-family:sans-serif;font-style:normal;font-weight:normal" x="1029.34" y="996.242">
      <tspan x="1029.34" y="996.242">Jump</tspan>
    </text>
  </g>
  <g>
    <rect style="fill: #ffffff" x="791.8" y="846.983" width="80" height="36" rx="10" ry="10"/>
    <rect style="fill: none; fill-opacity:0; stroke-width: 2; stroke: #000000" x="791.8" y="846.983" width="80" height="36" rx="10" ry="10"/>
    <text font-size="12.7998" style="fill: #000000;text-anchor:middle;font-family:sans-serif;font-style:normal;font-weight:normal" x="831.8" y="868.883">
      <tspan x="831.8" y="868.883">Sprint</tspan>
    </text>
  </g>
  <g>
    <rect style="fill: #ffffff" x="1277.77" y="969.993" width="80" height="36" rx="10" ry="10"/>
    <rect style="fill: none; fill-opacity:0; stroke-width: 2; stroke: #000000" x="1277.77" y="969.993" width="80" height="36" rx="10" ry="10"/>
    <text font-size="12.7998" style="fill: #000000;text-anchor:middle;font-family:sans-serif;font-style:normal;font-weight:normal" x="1317.77" y="991.893">
      <tspan x="1317.77" y="991.893">Land</tspan>
    </text>
  </g>
  <g>
    <rect style="fill: #ffffff" x="1136.46" y="887.904" width="80" height="36" rx="10" ry="10"/>
    <rect style="fill: none; fill-opacity:0; stroke-width: 2; stroke: #000000" x="1136.46" y="887.904" width="80" height="36" rx="10" ry="10"/>
    <text font-size="12.7998" style="fill: #000000;text-anchor:middle;font-family:sans-serif;font-style:normal;font-weight:normal" x="1176.46" y="909.804">
      <tspan x="1176.46" y="909.804">Fall</tspan>
    </text>
  </g>
  <g>
    <rect style="fill: #ffffff" x="244.511" y="1018.75" width="87.55" height="36" rx="10" ry="10"/>
    <rect style="fill: none; fill-opacity:0; stroke-width: 2; stroke: #000000" x="244.511" y="1018.75" width="87.55" height="36" rx="10" ry="10"/>
    <text font-size="12.7998" style="fill: #000000;text-anchor:middle;font-family:sans-serif;font-style:normal;font-weight:normal" x="288.286" y="1040.65">
      <tspan x="288.286" y="1040.65">IdleToWalk</tspan>
    </text>
  </g>
  <g>
    <rect style="fill: #ffffff" x="438.8" y="995.983" width="81.45" height="36" rx="10" ry="10"/>
    <rect style="fill: none; fill-opacity:0; stroke-width: 2; stroke: #000000" x="438.8" y="995.983" width="81.45" height="36" rx="10" ry="10"/>
    <text font-size="12.7998" style="fill: #000000;text-anchor:middle;font-family:sans-serif;font-style:normal;font-weight:normal" x="479.525" y="1017.88">
      <tspan x="479.525" y="1017.88">IdleToRun</tspan>
    </text>
  </g>
  <g>
    <rect style="fill: #ffffff" x="727.197" y="1017.87" width="95.1" height="36" rx="10" ry="10"/>
    <rect style="fill: none; fill-opacity:0; stroke-width: 2; stroke: #000000" x="727.197" y="1017.87" width="95.1" height="36" rx="10" ry="10"/>
    <text font-size="12.7998" style="fill: #000000;text-anchor:middle;font-family:sans-serif;font-style:normal;font-weight:normal" x="774.747" y="1039.77">
      <tspan x="774.747" y="1039.77">IdleToSprint</tspan>
    </text>
  </g>
  <g>
    <rect style="fill: #ffffff" x="126.089" y="1027.21" width="87.55" height="36" rx="10" ry="10"/>
    <rect style="fill: none; fill-opacity:0; stroke-width: 2; stroke: #000000" x="126.089" y="1027.21" width="87.55" height="36" rx="10" ry="10"/>
    <text font-size="12.7998" style="fill: #000000;text-anchor:middle;font-family:sans-serif;font-style:normal;font-weight:normal" x="169.864" y="1049.11">
      <tspan x="169.864" y="1049.11">WalkToIdle</tspan>
    </text>
  </g>
  <g>
    <rect style="fill: #ffffff" x="344.8" y="802.983" width="88.7" height="36" rx="10" ry="10"/>
    <rect style="fill: none; fill-opacity:0; stroke-width: 2; stroke: #000000" x="344.8" y="802.983" width="88.7" height="36" rx="10" ry="10"/>
    <text font-size="12.7998" style="fill: #000000;text-anchor:middle;font-family:sans-serif;font-style:normal;font-weight:normal" x="389.15" y="824.883">
      <tspan x="389.15" y="824.883">WalkToRun</tspan>
    </text>
  </g>
  <g>
    <rect style="fill: #ffffff" x="536.571" y="995.67" width="81.45" height="36" rx="10" ry="10"/>
    <rect style="fill: none; fill-opacity:0; stroke-width: 2; stroke: #000000" x="536.571" y="995.67" width="81.45" height="36" rx="10" ry="10"/>
    <text font-size="12.7998" style="fill: #000000;text-anchor:middle;font-family:sans-serif;font-style:normal;font-weight:normal" x="577.296" y="1017.57">
      <tspan x="577.296" y="1017.57">RunToIdle</tspan>
    </text>
  </g>
  <g>
    <rect style="fill: #ffffff" x="340.257" y="860.212" width="88.7" height="36" rx="10" ry="10"/>
    <rect style="fill: none; fill-opacity:0; stroke-width: 2; stroke: #000000" x="340.257" y="860.212" width="88.7" height="36" rx="10" ry="10"/>
    <text font-size="12.7998" style="fill: #000000;text-anchor:middle;font-family:sans-serif;font-style:normal;font-weight:normal" x="384.607" y="882.112">
      <tspan x="384.607" y="882.112">RunToWalk</tspan>
    </text>
  </g>
  <g>
    <rect style="fill: #ffffff" x="619.378" y="796.332" width="96.25" height="36" rx="10" ry="10"/>
    <rect style="fill: none; fill-opacity:0; stroke-width: 2; stroke: #000000" x="619.378" y="796.332" width="96.25" height="36" rx="10" ry="10"/>
    <text font-size="12.7998" style="fill: #000000;text-anchor:middle;font-family:sans-serif;font-style:normal;font-weight:normal" x="667.503" y="818.232">
      <tspan x="667.503" y="818.232">RunToSprint</tspan>
    </text>
  </g>
  <g>
    <rect style="fill: #ffffff" x="833.257" y="1020.1" width="95.1" height="36" rx="10" ry="10"/>
    <rect style="fill: none; fill-opacity:0; stroke-width: 2; stroke: #000000" x="833.257" y="1020.1" width="95.1" height="36" rx="10" ry="10"/>
    <text font-size="12.7998" style="fill: #000000;text-anchor:middle;font-family:sans-serif;font-style:normal;font-weight:normal" x="880.807" y="1042">
      <tspan x="880.807" y="1042">SprintToIdle</tspan>
    </text>
  </g>
  <g>
    <rect style="fill: #ffffff" x="628.775" y="868.694" width="96.25" height="36" rx="10" ry="10"/>
    <rect style="fill: none; fill-opacity:0; stroke-width: 2; stroke: #000000" x="628.775" y="868.694" width="96.25" height="36" rx="10" ry="10"/>
    <text font-size="12.7998" style="fill: #000000;text-anchor:middle;font-family:sans-serif;font-style:normal;font-weight:normal" x="676.9" y="890.594">
      <tspan x="676.9" y="890.594">SprintToRun</tspan>
    </text>
  </g>
  <g>
    <line style="fill: none; fill-opacity:0; stroke-width: 2; stroke: #000000" x1="566.172" y1="1140.21" x2="728.27" y2="1059.12"/>
    <polygon style="fill: #000000" points="734.978,1055.77 728.271,1064.71 728.27,1059.12 723.797,1055.77 "/>
    <polygon style="fill: none; fill-opacity:0; stroke-width: 2; stroke: #000000" points="734.978,1055.77 728.271,1064.71 728.27,1059.12 723.797,1055.77 "/>
  </g>
  <g>
    <line style="fill: none; fill-opacity:0; stroke-width: 2; stroke: #000000" x1="522.003" y1="1140.1" x2="489.031" y2="1042.21"/>
    <polygon style="fill: #000000" points="486.637,1035.1 494.568,1042.98 489.031,1042.21 485.091,1046.17 "/>
    <polygon style="fill: none; fill-opacity:0; stroke-width: 2; stroke: #000000" points="486.637,1035.1 494.568,1042.98 489.031,1042.21 485.091,1046.17 "/>
  </g>
  <g>
    <line style="fill: none; fill-opacity:0; stroke-width: 2; stroke: #000000" x1="491.104" y1="1140.1" x2="334.259" y2="1060.18"/>
    <polygon style="fill: #000000" points="327.576,1056.77 338.756,1056.86 334.259,1060.18 334.216,1065.77 "/>
    <polygon style="fill: none; fill-opacity:0; stroke-width: 2; stroke: #000000" points="327.576,1056.77 338.756,1056.86 334.259,1060.18 334.216,1065.77 "/>
  </g>
  <g>
    <line style="fill: none; fill-opacity:0; stroke-width: 2; stroke: #000000" x1="486.247" y1="994.991" x2="525.829" y2="883.153"/>
    <polygon style="fill: #000000" points="528.332,876.083 529.709,887.178 525.829,883.153 520.282,883.842 "/>
    <polygon style="fill: none; fill-opacity:0; stroke-width: 2; stroke: #000000" points="528.332,876.083 529.709,887.178 525.829,883.153 520.282,883.842 "/>
  </g>
  <g>
    <line style="fill: none; fill-opacity:0; stroke-width: 2; stroke: #000000" x1="781.088" y1="1016.88" x2="822.375" y2="893.212"/>
    <polygon style="fill: #000000" points="824.751,886.098 826.327,897.167 822.375,893.212 816.841,894 "/>
    <polygon style="fill: none; fill-opacity:0; stroke-width: 2; stroke: #000000" points="824.751,886.098 826.327,897.167 822.375,893.212 816.841,894 "/>
  </g>
  <g>
    <line style="fill: none; fill-opacity:0; stroke-width: 2; stroke: #000000" x1="281.055" y1="1017.76" x2="235.494" y2="898.076"/>
    <polygon style="fill: #000000" points="232.826,891.067 241.056,898.634 235.494,898.076 231.711,902.191 "/>
    <polygon style="fill: none; fill-opacity:0; stroke-width: 2; stroke: #000000" points="232.826,891.067 241.056,898.634 235.494,898.076 231.711,902.191 "/>
  </g>
  <g>
    <line style="fill: none; fill-opacity:0; stroke-width: 2; stroke: #000000" x1="494.809" y1="861.281" x2="439.577" y2="869.767"/>
    <polygon style="fill: #000000" points="432.164,870.906 441.289,864.445 439.577,869.767 442.808,874.329 "/>
    <polygon style="fill: none; fill-opacity:0; stroke-width: 2; stroke: #000000" points="432.164,870.906 441.289,864.445 439.577,869.767 442.808,874.329 "/>
  </g>
  <g>
    <line style="fill: none; fill-opacity:0; stroke-width: 2; stroke: #000000" x1="339.262" y1="875.877" x2="275.509" y2="872.594"/>
    <polygon style="fill: #000000" points="268.019,872.209 278.263,867.73 275.509,872.594 277.748,877.716 "/>
    <polygon style="fill: none; fill-opacity:0; stroke-width: 2; stroke: #000000" points="268.019,872.209 278.263,867.73 275.509,872.594 277.748,877.716 "/>
  </g>
  <g>
    <line style="fill: none; fill-opacity:0; stroke-width: 2; stroke: #000000" x1="265.767" y1="857.769" x2="334.469" y2="837.286"/>
    <polygon style="fill: #000000" points="341.656,835.143 333.502,842.792 334.469,837.286 330.644,833.209 "/>
    <polygon style="fill: none; fill-opacity:0; stroke-width: 2; stroke: #000000" points="341.656,835.143 333.502,842.792 334.469,837.286 330.644,833.209 "/>
  </g>
  <g>
    <line style="fill: none; fill-opacity:0; stroke-width: 2; stroke: #000000" x1="434.494" y1="831.496" x2="485.312" y2="843.278"/>
    <polygon style="fill: #000000" points="492.618,844.972 481.747,847.584 485.312,843.278 484.005,837.842 "/>
    <polygon style="fill: none; fill-opacity:0; stroke-width: 2; stroke: #000000" points="492.618,844.972 481.747,847.584 485.312,843.278 484.005,837.842 "/>
  </g>
  <g>
    <line style="fill: none; fill-opacity:0; stroke-width: 2; stroke: #000000" x1="540.766" y1="873.977" x2="569.866" y2="985.257"/>
    <polygon style="fill: #000000" points="571.763,992.513 564.396,984.104 569.866,985.257 574.071,981.574 "/>
    <polygon style="fill: none; fill-opacity:0; stroke-width: 2; stroke: #000000" points="571.763,992.513 564.396,984.104 569.866,985.257 574.071,981.574 "/>
  </g>
  <g>
    <line style="fill: none; fill-opacity:0; stroke-width: 2; stroke: #000000" x1="570.907" y1="1032.67" x2="537.894" y2="1130.87"/>
    <polygon style="fill: #000000" points="535.504,1137.98 533.951,1126.91 537.894,1130.87 543.43,1130.09 "/>
    <polygon style="fill: none; fill-opacity:0; stroke-width: 2; stroke: #000000" points="535.504,1137.98 533.951,1126.91 537.894,1130.87 543.43,1130.09 "/>
  </g>
  <g>
    <line style="fill: none; fill-opacity:0; stroke-width: 2; stroke: #000000" x1="837.172" y1="883.961" x2="872.783" y2="1009.76"/>
    <polygon style="fill: #000000" points="874.826,1016.97 867.291,1008.71 872.783,1009.76 876.913,1005.99 "/>
    <polygon style="fill: none; fill-opacity:0; stroke-width: 2; stroke: #000000" points="874.826,1016.97 867.291,1008.71 872.783,1009.76 876.913,1005.99 "/>
  </g>
  <g>
    <line style="fill: none; fill-opacity:0; stroke-width: 2; stroke: #000000" x1="832.261" y1="1054.77" x2="578.618" y2="1141.86"/>
    <polygon style="fill: #000000" points="571.524,1144.3 579.358,1136.32 578.618,1141.86 582.606,1145.78 "/>
    <polygon style="fill: none; fill-opacity:0; stroke-width: 2; stroke: #000000" points="571.524,1144.3 579.358,1136.32 578.618,1141.86 582.606,1145.78 "/>
  </g>
  <g>
    <line style="fill: none; fill-opacity:0; stroke-width: 2; stroke: #000000" x1="576.804" y1="842.327" x2="609.197" y2="832.329"/>
    <polygon style="fill: #000000" points="616.363,830.117 608.283,837.844 609.197,832.329 605.333,828.289 "/>
    <polygon style="fill: none; fill-opacity:0; stroke-width: 2; stroke: #000000" points="616.363,830.117 608.283,837.844 609.197,832.329 605.333,828.289 "/>
  </g>
  <g>
    <line style="fill: none; fill-opacity:0; stroke-width: 2; stroke: #000000" x1="716.619" y1="829.474" x2="781.492" y2="849.474"/>
    <polygon style="fill: #000000" points="788.659,851.683 777.63,853.515 781.492,849.474 780.576,843.959 "/>
    <polygon style="fill: none; fill-opacity:0; stroke-width: 2; stroke: #000000" points="788.659,851.683 777.63,853.515 781.492,849.474 780.576,843.959 "/>
  </g>
  <g>
    <line style="fill: none; fill-opacity:0; stroke-width: 2; stroke: #000000" x1="790.796" y1="870.73" x2="735.676" y2="878.456"/>
    <polygon style="fill: #000000" points="728.249,879.497 737.458,873.158 735.676,878.456 738.846,883.061 "/>
    <polygon style="fill: none; fill-opacity:0; stroke-width: 2; stroke: #000000" points="728.249,879.497 737.458,873.158 735.676,878.456 738.846,883.061 "/>
  </g>
  <g>
    <line style="fill: none; fill-opacity:0; stroke-width: 2; stroke: #000000" x1="627.768" y1="875.652" x2="586.301" y2="866.333"/>
    <polygon style="fill: #000000" points="578.984,864.688 589.837,862.003 586.301,866.333 587.644,871.76 "/>
    <polygon style="fill: none; fill-opacity:0; stroke-width: 2; stroke: #000000" points="578.984,864.688 589.837,862.003 586.301,866.333 587.644,871.76 "/>
  </g>
  <g>
    <line style="fill: none; fill-opacity:0; stroke-width: 2; stroke: #000000" x1="218.841" y1="888.989" x2="178.735" y2="1016.92"/>
    <polygon style="fill: #000000" points="176.491,1024.07 174.711,1013.04 178.735,1016.92 184.253,1016.03 "/>
    <polygon style="fill: none; fill-opacity:0; stroke-width: 2; stroke: #000000" points="176.491,1024.07 174.711,1013.04 178.735,1016.92 184.253,1016.03 "/>
  </g>
  <g>
    <line style="fill: none; fill-opacity:0; stroke-width: 2; stroke: #000000" x1="214.643" y1="1059.44" x2="478.135" y2="1143.14"/>
    <polygon style="fill: #000000" points="485.283,1145.41 474.239,1147.14 478.135,1143.14 477.266,1137.61 "/>
    <polygon style="fill: none; fill-opacity:0; stroke-width: 2; stroke: #000000" points="485.283,1145.41 474.239,1147.14 478.135,1143.14 477.266,1137.61 "/>
  </g>
  <g>
    <rect style="fill: #ffffff" x="972.698" y="563.168" width="88.8" height="36" rx="10" ry="10"/>
    <rect style="fill: none; fill-opacity:0; stroke-width: 2; stroke: #000000" x="972.698" y="563.168" width="88.8" height="36" rx="10" ry="10"/>
    <text font-size="12.7998" style="fill: #000000;text-anchor:middle;font-family:sans-serif;font-style:normal;font-weight:normal" x="1017.1" y="585.068">
      <tspan x="1017.1" y="585.068">ANY STATE</tspan>
    </text>
  </g>
  <g>
    <line style="fill: none; fill-opacity:0; stroke-width: 2; stroke: #000000" x1="1001.63" y1="553.718" x2="873.106" y2="325.593"/>
    <polygon style="fill: #000000" points="1005.31,560.252 996.05,553.994 1001.63,553.718 1004.76,549.086 "/>
    <polygon style="fill: none; fill-opacity:0; stroke-width: 2; stroke: #000000" points="1005.31,560.252 996.05,553.994 1001.63,553.718 1004.76,549.086 "/>
    <polygon style="fill: #000000" points="869.424,319.058 878.689,325.317 873.106,325.593 869.977,330.225 "/>
    <polygon style="fill: none; fill-opacity:0; stroke-width: 2; stroke: #000000" points="869.424,319.058 878.689,325.317 873.106,325.593 869.977,330.225 "/>
  </g>
  <g>
    <line style="fill: none; fill-opacity:0; stroke-width: 2; stroke: #000000" x1="824.372" y1="845.984" x2="746.072" y2="645.7"/>
    <polygon style="fill: #000000" points="743.341,638.715 751.639,646.208 746.072,645.7 742.325,649.849 "/>
    <polygon style="fill: none; fill-opacity:0; stroke-width: 2; stroke: #000000" points="743.341,638.715 751.639,646.208 746.072,645.7 742.325,649.849 "/>
  </g>
  <g>
    <line style="fill: none; fill-opacity:0; stroke-width: 2; stroke: #000000" x1="540.744" y1="835.98" x2="589.654" y2="647.983"/>
    <polygon style="fill: #000000" points="591.542,640.725 593.863,651.662 589.654,647.983 584.185,649.144 "/>
    <polygon style="fill: none; fill-opacity:0; stroke-width: 2; stroke: #000000" points="591.542,640.725 593.863,651.662 589.654,647.983 584.185,649.144 "/>
  </g>
  <g>
    <rect style="fill: #ffffff" x="817.64" y="280.143" width="80" height="36" rx="10" ry="10"/>
    <rect style="fill: none; fill-opacity:0; stroke-width: 2; stroke: #000000" x="817.64" y="280.143" width="80" height="36" rx="10" ry="10"/>
    <text font-size="12.7998" style="fill: #000000;text-anchor:middle;font-family:sans-serif;font-style:normal;font-weight:normal" x="857.64" y="302.043">
      <tspan x="857.64" y="302.043">Climb</tspan>
    </text>
  </g>
  <g>
    <rect style="fill: #ffffff" x="542.349" y="601.557" width="109.4" height="36" rx="10" ry="10"/>
    <rect style="fill: none; fill-opacity:0; stroke-width: 2; stroke: #000000" x="542.349" y="601.557" width="109.4" height="36" rx="10" ry="10"/>
    <text font-size="12.7998" style="fill: #000000;text-anchor:middle;font-family:sans-serif;font-style:normal;font-weight:normal" x="597.049" y="623.457">
      <tspan x="597.049" y="623.457">RunToWallRun</tspan>
    </text>
  </g>
  <g>
    <rect style="fill: #ffffff" x="673.574" y="599.633" width="123.05" height="36" rx="10" ry="10"/>
    <rect style="fill: none; fill-opacity:0; stroke-width: 2; stroke: #000000" x="673.574" y="599.633" width="123.05" height="36" rx="10" ry="10"/>
    <text font-size="12.7998" style="fill: #000000;text-anchor:middle;font-family:sans-serif;font-style:normal;font-weight:normal" x="735.099" y="621.533">
      <tspan x="735.099" y="621.533">SprintToWallRun</tspan>
    </text>
  </g>
  <g>
    <rect style="fill: #ffffff" x="628.772" y="523.188" width="80" height="36" rx="10" ry="10"/>
    <rect style="fill: none; fill-opacity:0; stroke-width: 2; stroke: #000000" x="628.772" y="523.188" width="80" height="36" rx="10" ry="10"/>
    <text font-size="12.7998" style="fill: #000000;text-anchor:middle;font-family:sans-serif;font-style:normal;font-weight:normal" x="668.772" y="545.088">
      <tspan x="668.772" y="545.088">WallRun</tspan>
    </text>
  </g>
  <g>
    <line style="fill: none; fill-opacity:0; stroke-width: 2; stroke: #000000" x1="718.606" y1="598.624" x2="691.645" y2="567.55"/>
    <polygon style="fill: #000000" points="686.73,561.885 697.06,566.162 691.645,567.55 689.507,572.715 "/>
    <polygon style="fill: none; fill-opacity:0; stroke-width: 2; stroke: #000000" points="686.73,561.885 697.06,566.162 691.645,567.55 689.507,572.715 "/>
  </g>
  <g>
    <line style="fill: none; fill-opacity:0; stroke-width: 2; stroke: #000000" x1="614.437" y1="600.558" x2="644.811" y2="567.369"/>
    <polygon style="fill: #000000" points="649.875,561.837 646.812,572.589 644.811,567.369 639.435,565.838 "/>
    <polygon style="fill: none; fill-opacity:0; stroke-width: 2; stroke: #000000" points="649.875,561.837 646.812,572.589 644.811,567.369 639.435,565.838 "/>
  </g>
  <g>
    <rect style="fill: #ffffff" x="1132.68" y="122.422" width="378.079" height="206.055"/>
    <rect style="fill: none; fill-opacity:0; stroke-width: 2; stroke: #000000" x="1132.68" y="122.422" width="378.079" height="206.055"/>
    <rect style="fill: #ffffff" x="1132.68" y="102.422" width="127.2" height="20"/>
    <rect style="fill: none; fill-opacity:0; stroke-width: 2; stroke: #000000" x="1132.68" y="102.422" width="127.2" height="20"/>
    <text font-size="12.7998" style="fill: #000000;text-anchor:start;font-family:monospace;font-style:normal;font-weight:normal" x="1134.68" y="117.422">Plugin LedgeGrab</text>
  </g>
  <g>
    <rect style="fill: #ffffff" x="1259.67" y="277.066" width="90.2" height="36" rx="10" ry="10"/>
    <rect style="fill: none; fill-opacity:0; stroke-width: 2; stroke: #000000" x="1259.67" y="277.066" width="90.2" height="36" rx="10" ry="10"/>
    <text font-size="12.7998" style="fill: #000000;text-anchor:middle;font-family:sans-serif;font-style:normal;font-weight:normal" x="1304.77" y="298.966">
      <tspan x="1304.77" y="298.966">LedgeGrab</tspan>
    </text>
  </g>
  <g>
    <rect style="fill: #ffffff" x="1272.56" y="146.217" width="111.75" height="36" rx="10" ry="10"/>
    <rect style="fill: none; fill-opacity:0; stroke-width: 2; stroke: #000000" x="1272.56" y="146.217" width="111.75" height="36" rx="10" ry="10"/>
    <text font-size="12.7998" style="fill: #000000;text-anchor:middle;font-family:sans-serif;font-style:normal;font-weight:normal" x="1328.43" y="168.117">
      <tspan x="1328.43" y="168.117">LedgeGrab Up</tspan>
    </text>
  </g>
  <g>
    <rect style="fill: #ffffff" x="1360.51" y="201.118" width="127.95" height="36" rx="10" ry="10"/>
    <rect style="fill: none; fill-opacity:0; stroke-width: 2; stroke: #000000" x="1360.51" y="201.118" width="127.95" height="36" rx="10" ry="10"/>
    <text font-size="12.7998" style="fill: #000000;text-anchor:middle;font-family:sans-serif;font-style:normal;font-weight:normal" x="1424.48" y="223.018">
      <tspan x="1424.48" y="223.018">LedgeGrab Right</tspan>
    </text>
  </g>
  <g>
    <rect style="fill: #ffffff" x="1162.2" y="201.546" width="118.4" height="36" rx="10" ry="10"/>
    <rect style="fill: none; fill-opacity:0; stroke-width: 2; stroke: #000000" x="1162.2" y="201.546" width="118.4" height="36" rx="10" ry="10"/>
    <text font-size="12.7998" style="fill: #000000;text-anchor:middle;font-family:sans-serif;font-style:normal;font-weight:normal" x="1221.4" y="223.446">
      <tspan x="1221.4" y="223.446">LedgeGrab Left</tspan>
    </text>
  </g>
  <g>
    <line style="fill: none; fill-opacity:0; stroke-width: 2; stroke: #000000" x1="1276.58" y1="269.53" x2="1249.59" y2="245.083"/>
    <polygon style="fill: #000000" points="1282.13,274.565 1271.37,271.558 1276.58,269.53 1278.08,264.146 "/>
    <polygon style="fill: none; fill-opacity:0; stroke-width: 2; stroke: #000000" points="1282.13,274.565 1271.37,271.558 1276.58,269.53 1278.08,264.146 "/>
    <polygon style="fill: #000000" points="1244.03,240.047 1254.8,243.055 1249.59,245.083 1248.08,250.467 "/>
    <polygon style="fill: none; fill-opacity:0; stroke-width: 2; stroke: #000000" points="1244.03,240.047 1254.8,243.055 1249.59,245.083 1248.08,250.467 "/>
  </g>
  <g>
    <line style="fill: none; fill-opacity:0; stroke-width: 2; stroke: #000000" x1="1309.93" y1="266.494" x2="1323.26" y2="192.79"/>
    <polygon style="fill: #000000" points="1308.6,273.874 1305.46,263.144 1309.93,266.494 1315.3,264.924 "/>
    <polygon style="fill: none; fill-opacity:0; stroke-width: 2; stroke: #000000" points="1308.6,273.874 1305.46,263.144 1309.93,266.494 1315.3,264.924 "/>
    <polygon style="fill: #000000" points="1324.6,185.409 1327.74,196.139 1323.26,192.79 1317.9,194.36 "/>
    <polygon style="fill: none; fill-opacity:0; stroke-width: 2; stroke: #000000" points="1324.6,185.409 1327.74,196.139 1323.26,192.79 1317.9,194.36 "/>
  </g>
  <g>
    <line style="fill: none; fill-opacity:0; stroke-width: 2; stroke: #000000" x1="1342.93" y1="270.854" x2="1386.32" y2="243.33"/>
    <polygon style="fill: #000000" points="1336.6,274.872 1342.36,265.293 1342.93,270.854 1347.72,273.737 "/>
    <polygon style="fill: none; fill-opacity:0; stroke-width: 2; stroke: #000000" points="1336.6,274.872 1342.36,265.293 1342.93,270.854 1347.72,273.737 "/>
    <polygon style="fill: #000000" points="1392.65,239.312 1386.89,248.891 1386.32,243.33 1381.53,240.447 "/>
    <polygon style="fill: none; fill-opacity:0; stroke-width: 2; stroke: #000000" points="1392.65,239.312 1386.89,248.891 1386.32,243.33 1381.53,240.447 "/>
  </g>
  <g>
    <line style="fill: none; fill-opacity:0; stroke-width: 2; stroke: #000000" x1="1043.11" y1="555.294" x2="1278.75" y2="320.94"/>
    <polygon style="fill: #000000" points="1037.8,560.583 1041.36,549.986 1043.11,555.294 1048.41,557.077 "/>
    <polygon style="fill: none; fill-opacity:0; stroke-width: 2; stroke: #000000" points="1037.8,560.583 1041.36,549.986 1043.11,555.294 1048.41,557.077 "/>
    <polygon style="fill: #000000" points="1284.07,315.651 1280.51,326.248 1278.75,320.94 1273.45,319.157 "/>
    <polygon style="fill: none; fill-opacity:0; stroke-width: 2; stroke: #000000" points="1284.07,315.651 1280.51,326.248 1278.75,320.94 1273.45,319.157 "/>
  </g>
  <g>
    <rect style="fill: #ffffff" x="1269.88" y="566.604" width="174.3" height="36" rx="10" ry="10"/>
    <rect style="fill: none; fill-opacity:0; stroke-width: 2; stroke: #000000" x="1269.88" y="566.604" width="174.3" height="36" rx="10" ry="10"/>
    <text font-size="12.7998" style="fill: #000000;text-anchor:middle;font-family:sans-serif;font-style:normal;font-weight:normal" x="1357.03" y="588.504">
      <tspan x="1357.03" y="588.504">ANY ON GROUND STATE</tspan>
    </text>
  </g>
  <g>
    <line style="fill: none; fill-opacity:0; stroke-width: 2; stroke: #000000" x1="1061.68" y1="973.338" x2="1135.72" y2="929.839"/>
    <polygon style="fill: #000000" points="1142.19,926.04 1136.1,935.417 1135.72,929.839 1131.03,926.795 "/>
    <polygon style="fill: none; fill-opacity:0; stroke-width: 2; stroke: #000000" points="1142.19,926.04 1136.1,935.417 1135.72,929.839 1131.03,926.795 "/>
  </g>
  <g>
    <line style="fill: none; fill-opacity:0; stroke-width: 2; stroke: #000000" x1="1209.18" y1="924.913" x2="1276.63" y2="964.094"/>
    <polygon style="fill: #000000" points="1283.11,967.861 1271.95,967.161 1276.63,964.094 1276.98,958.514 "/>
    <polygon style="fill: none; fill-opacity:0; stroke-width: 2; stroke: #000000" points="1283.11,967.861 1271.95,967.161 1276.63,964.094 1276.98,958.514 "/>
  </g>
  <g>
    <rect style="fill: #ffffff" x="1101.9" y="567.334" width="139.7" height="36" rx="10" ry="10"/>
    <rect style="fill: none; fill-opacity:0; stroke-width: 2; stroke: #000000" x="1101.9" y="567.334" width="139.7" height="36" rx="10" ry="10"/>
    <text font-size="12.7998" style="fill: #000000;text-anchor:middle;font-family:sans-serif;font-style:normal;font-weight:normal" x="1171.75" y="589.234">
      <tspan x="1171.75" y="589.234">ANY PLUGIN STATE</tspan>
    </text>
  </g>
  <g>
    <line style="fill: none; fill-opacity:0; stroke-width: 2; stroke: #000000" x1="1035.98" y1="973.35" x2="1161.89" y2="613.515"/>
    <polygon style="fill: #000000" points="1164.37,606.436 1165.79,617.526 1161.89,613.515 1156.35,614.224 "/>
    <polygon style="fill: none; fill-opacity:0; stroke-width: 2; stroke: #000000" points="1164.37,606.436 1165.79,617.526 1161.89,613.515 1156.35,614.224 "/>
  </g>
  <g>
    <line style="fill: none; fill-opacity:0; stroke-width: 2; stroke: #000000" x1="709.772" y1="545.894" x2="962.099" y2="574.855"/>
    <polygon style="fill: #000000" points="969.55,575.71 959.045,579.537 962.099,574.855 960.186,569.603 "/>
    <polygon style="fill: none; fill-opacity:0; stroke-width: 2; stroke: #000000" points="969.55,575.71 959.045,579.537 962.099,574.855 960.186,569.603 "/>
  </g>
  <g>
    <line style="fill: none; fill-opacity:0; stroke-width: 2; stroke: #000000" x1="1319.62" y1="969.035" x2="1354.24" y2="613.253"/>
    <polygon style="fill: #000000" points="1354.97,605.788 1358.98,616.225 1354.24,613.253 1349.02,615.257 "/>
    <polygon style="fill: none; fill-opacity:0; stroke-width: 2; stroke: #000000" points="1354.97,605.788 1358.98,616.225 1354.24,613.253 1349.02,615.257 "/>
  </g>
  <g>
    <line style="fill: none; fill-opacity:0; stroke-width: 2; stroke: #000000" x1="1070.34" y1="991.724" x2="1267.03" y2="988.758"/>
    <polygon style="fill: #000000" points="1274.53,988.645 1264.61,993.795 1267.03,988.758 1264.46,983.796 "/>
    <polygon style="fill: none; fill-opacity:0; stroke-width: 2; stroke: #000000" points="1274.53,988.645 1264.61,993.795 1267.03,988.758 1264.46,983.796 "/>
  </g>
  <g>
    <line style="fill: none; fill-opacity:0; stroke-width: 2; stroke: #000000" x1="1176.18" y1="886.925" x2="1172.17" y2="614.048"/>
    <polygon style="fill: #000000" points="1172.06,606.549 1177.21,616.475 1172.17,614.048 1167.21,616.621 "/>
    <polygon style="fill: none; fill-opacity:0; stroke-width: 2; stroke: #000000" points="1172.06,606.549 1177.21,616.475 1172.17,614.048 1167.21,616.621 "/>
  </g>
  <g>
    <line style="fill: none; fill-opacity:0; stroke-width: 2; stroke: #000000" x1="1310.88" y1="968.989" x2="1181.96" y2="613.491"/>
    <polygon style="fill: #000000" points="1179.41,606.44 1187.52,614.136 1181.96,613.491 1178.11,617.545 "/>
    <polygon style="fill: none; fill-opacity:0; stroke-width: 2; stroke: #000000" points="1179.41,606.44 1187.52,614.136 1181.96,613.491 1178.11,617.545 "/>
  </g>
  <g>
    <line style="fill: none; fill-opacity:0; stroke-width: 2; stroke: #000000" x1="1017.66" y1="600.172" x2="1028.48" y2="963.606"/>
    <polygon style="fill: #000000" points="1028.7,971.103 1023.41,961.256 1028.48,963.606 1033.41,960.958 "/>
    <polygon style="fill: none; fill-opacity:0; stroke-width: 2; stroke: #000000" points="1028.7,971.103 1023.41,961.256 1028.48,963.606 1033.41,960.958 "/>
  </g>
</svg>
